# xmcd
#
# Track frame offsets:
#	150
#	13154
#	23815
#	34559
#	43865
#	56421
#	67868
#	76833
#	87368
#	99244
#	110136
#	121720
#	133322
#	145222
#	156379
#	166607
#	175926
#	191821
#
# Disc length: 2696 seconds
#
# Revision: 0
# Processed by: cddbd v1.5.1PL0 Copyright (c) Steve Scherf et al.
# Submitted via: dBpowerAMP V4.0
#
DISCID=ea0a8612
DTITLE=Various Artist - Rockin' Pneumonia
DYEAR=1999
DGENRE=Rhythm and Blues
TTITLE0=Storm Warning - Dr. John
TTITLE1=She's About A Mover - Sir Douglas Quartet
TTITLE2=New Orleans - Big Boy Myles with Mac Rebennack's Orchestra
TTITLE3=Something Special - Roland Stone
TTITLE4=High Blood Pressure - Huey 'Piano' Smith
TTITLE5=Roberta - Scotty McKay
TTITLE6=What's Going On - Frankie Ford
TTITLE7=Rockin' Behind The Iron Curtain - Bobby Marchan
TTITLE8=Sea Cruise - Huey 'Piano' Smith
TTITLE9=Rock Little Baby - Lee Dorsey
TTITLE10=Just A Dream - Jimmy Clanton
TTITLE11=Jockomo - Sugar Boy Crawford
TTITLE12=Well-O, Well-O, Well-O Baby - Earl King
TTITLE13=Dippy - Alvin 'Red' Tyler
TTITLE14=Rockin' Pneumonia And The Boogie Woogie Flu - Huey 'Piano' Smith
TTITLE15=Let's Twist Again - Chuck Carbo
TTITLE16=Walkin' With Frankie - Frankie Lee Sims
TTITLE17=Educated Fool - Charles Brown and Amos Milburn
EXTD=
EXTT0=
EXTT1=
EXTT2=
EXTT3=
EXTT4=
EXTT5=
EXTT6=
EXTT7=
EXTT8=
EXTT9=
EXTT10=
EXTT11=
EXTT12=
EXTT13=
EXTT14=
EXTT15=
EXTT16=
EXTT17=
PLAYORDER=
